<mxfile host="app.diagrams.net" agent="Mozilla/5.0 (Windows NT 10.0; Win64; x64) AppleWebKit/537.36 (KHTML, like Gecko) Chrome/138.0.0.0 Safari/537.36" version="28.0.7">
  <diagram id="detailed_activity_flow_vi" name="Sơ đồ Quy trình Chi tiết Theo Hoạt động">
    <mxGraphModel dx="1639" dy="895" grid="1" gridSize="10" guides="1" tooltips="1" connect="1" arrows="1" fold="1" page="1" pageScale="1" pageWidth="1654" pageHeight="1169" math="0" shadow="0">
      <root>
        <mxCell id="0" />
        <mxCell id="1" parent="0" />
        <mxCell id="swimlane_customer" value="Khách hàng" style="swimlane;whiteSpace=wrap;html=1;startSize=23;fillColor=#DAE8FC;strokeColor=#6C8EBF;" parent="1" vertex="1">
          <mxGeometry x="40" y="40" width="280" height="1000" as="geometry" />
        </mxCell>
        <mxCell id="customer_start" value="" style="ellipse;html=1;shape=startState;fillColor=#000000;strokeColor=#ff0000;" parent="swimlane_customer" vertex="1">
          <mxGeometry x="125" y="60" width="30" height="30" as="geometry" />
        </mxCell>
        <mxCell id="customer_create_order" value="Tạo đơn hàng &amp;amp; Thanh toán thành công" style="rounded=1;whiteSpace=wrap;html=1;" parent="swimlane_customer" vertex="1">
          <mxGeometry x="80" y="130" width="120" height="70" as="geometry" />
        </mxCell>
        <mxCell id="customer_track_order" value="Theo dõi trạng thái đơn hàng (Nhận thông báo tự động từ hệ thống)" style="rounded=1;whiteSpace=wrap;html=1;" parent="swimlane_customer" vertex="1">
          <mxGeometry x="80" y="470" width="120" height="90" as="geometry" />
        </mxCell>
        <mxCell id="customer_receive_goods" value="Nhận hàng" style="rounded=1;whiteSpace=wrap;html=1;" parent="swimlane_customer" vertex="1">
          <mxGeometry x="80" y="770" width="120" height="60" as="geometry" />
        </mxCell>
        <mxCell id="customer_review" value="Đánh giá sản phẩm (Tùy chọn)" style="rounded=1;whiteSpace=wrap;html=1;" parent="swimlane_customer" vertex="1">
          <mxGeometry x="80" y="870" width="120" height="60" as="geometry" />
        </mxCell>
        <mxCell id="customer_end" value="" style="ellipse;whiteSpace=wrap;html=1;shape=end;fillColor=#000000;strokeColor=#000000;" parent="swimlane_customer" vertex="1">
          <mxGeometry x="125" y="960" width="30" height="30" as="geometry" />
        </mxCell>
        <mxCell id="customer_end_cancelled" value="Kết thúc (Đơn hàng bị hủy)" style="ellipse;whiteSpace=wrap;html=1;shape=end;fillColor=#A0A0A0;strokeColor=#696969;" parent="swimlane_customer" vertex="1">
          <mxGeometry x="10" y="600" width="80" height="50" as="geometry" />
        </mxCell>
        <mxCell id="swimlane_manager" value="Quản lý" style="swimlane;whiteSpace=wrap;html=1;startSize=23;fillColor=#FFF2CC;strokeColor=#D6B656;" parent="1" vertex="1">
          <mxGeometry x="320" y="40" width="280" height="1000" as="geometry" />
        </mxCell>
        <mxCell id="manager_receive_order" value="Hệ thống ghi nhận đơn hàng mới (Trạng thái: Pending)" style="rounded=1;whiteSpace=wrap;html=1;" parent="swimlane_manager" vertex="1">
          <mxGeometry x="80" y="130" width="120" height="70" as="geometry" />
        </mxCell>
        <mxCell id="manager_decision" value="Duyệt đơn?" style="rhombus;whiteSpace=wrap;html=1;" parent="swimlane_manager" vertex="1">
          <mxGeometry x="90" y="240" width="100" height="80" as="geometry" />
        </mxCell>
        <mxCell id="manager_confirm_order" value="Cập nhật trạng thái: &#39;Confirmed&#39;" style="rounded=1;whiteSpace=wrap;html=1;" parent="swimlane_manager" vertex="1">
          <mxGeometry x="80" y="360" width="120" height="60" as="geometry" />
        </mxCell>
        <mxCell id="manager_cancel_order" value="Cập nhật trạng thái: &#39;Cancelled&#39;" style="rounded=1;whiteSpace=wrap;html=1;" parent="swimlane_manager" vertex="1">
          <mxGeometry y="340" width="70" height="60" as="geometry" />
        </mxCell>
        <mxCell id="manager_monitor" value="Giám sát tiến độ &amp;amp; Xử lý các vấn đề phát sinh (VD: Giao thất bại)" style="rounded=1;whiteSpace=wrap;html=1;dashed=1;" parent="swimlane_manager" vertex="1">
          <mxGeometry x="80" y="850" width="120" height="90" as="geometry" />
        </mxCell>
        <mxCell id="swimlane_baker" value="Nhân viên làm bánh" style="swimlane;whiteSpace=wrap;html=1;startSize=23;fillColor=#D5E8D4;strokeColor=#82B366;" parent="1" vertex="1">
          <mxGeometry x="600" y="40" width="280" height="1000" as="geometry" />
        </mxCell>
        <mxCell id="baker_receive_order" value="Nhận đơn hàng mới trên hệ thống" style="rounded=1;whiteSpace=wrap;html=1;" parent="swimlane_baker" vertex="1">
          <mxGeometry x="80" y="360" width="120" height="60" as="geometry" />
        </mxCell>
        <mxCell id="baker_update_preparing" value="Cập nhật trạng thái: &#39;Preparing&#39;" style="rounded=1;whiteSpace=wrap;html=1;" parent="swimlane_baker" vertex="1">
          <mxGeometry x="80" y="460" width="120" height="60" as="geometry" />
        </mxCell>
        <mxCell id="baker_process" value="Chuẩn bị nguyên liệu &amp;amp; Làm bánh" style="rounded=1;whiteSpace=wrap;html=1;" parent="swimlane_baker" vertex="1">
          <mxGeometry x="80" y="560" width="120" height="60" as="geometry" />
        </mxCell>
        <mxCell id="baker_update_prepared" value="Hoàn thành &amp;amp; Cập nhật trạng thái: &#39;Prepared&#39;" style="rounded=1;whiteSpace=wrap;html=1;" parent="swimlane_baker" vertex="1">
          <mxGeometry x="80" y="660" width="120" height="60" as="geometry" />
        </mxCell>
        <mxCell id="swimlane_delivery" value="Nhân viên giao hàng" style="swimlane;whiteSpace=wrap;html=1;startSize=23;fillColor=#F8CECC;strokeColor=#B85450;" parent="1" vertex="1">
          <mxGeometry x="880" y="40" width="280" height="1000" as="geometry" />
        </mxCell>
        <mxCell id="delivery_receive_order" value="Nhận đơn hàng mới trên hệ thống" style="rounded=1;whiteSpace=wrap;html=1;" parent="swimlane_delivery" vertex="1">
          <mxGeometry x="80" y="660" width="120" height="60" as="geometry" />
        </mxCell>
        <mxCell id="delivery_update_delivering" value="Lấy hàng &amp;amp; Cập nhật trạng thái: &#39;Delivering&#39;" style="rounded=1;whiteSpace=wrap;html=1;" parent="swimlane_delivery" vertex="1">
          <mxGeometry x="80" y="760" width="120" height="70" as="geometry" />
        </mxCell>
        <mxCell id="delivery_decision" value="Kết quả giao hàng?" style="rhombus;whiteSpace=wrap;html=1;" parent="swimlane_delivery" vertex="1">
          <mxGeometry x="90" y="860" width="100" height="80" as="geometry" />
        </mxCell>
        <mxCell id="delivery_update_delivered" value="Thành công &amp;amp; Cập nhật trạng thái: &#39;Delivered&#39;" style="rounded=1;whiteSpace=wrap;html=1;" parent="swimlane_delivery" vertex="1">
          <mxGeometry x="150" y="950" width="120" height="70" as="geometry" />
        </mxCell>
        <mxCell id="delivery_update_failed" value="Thất bại &amp;amp; Cập nhật trạng thái: &#39;Failed&#39;" style="rounded=1;whiteSpace=wrap;html=1;" parent="swimlane_delivery" vertex="1">
          <mxGeometry x="10" y="950" width="120" height="70" as="geometry" />
        </mxCell>
        <mxCell id="flow_start_to_create" value="" style="endArrow=classic;html=1;rounded=0;" parent="1" source="customer_start" target="customer_create_order" edge="1">
          <mxGeometry width="50" height="50" relative="1" as="geometry">
            <mxPoint x="140" y="110" as="sourcePoint" />
            <mxPoint x="140" y="150" as="targetPoint" />
          </mxGeometry>
        </mxCell>
        <mxCell id="flow_create_to_receive" value="Đơn hàng mới" style="endArrow=classic;html=1;rounded=0;" parent="1" source="customer_create_order" target="manager_receive_order" edge="1">
          <mxGeometry width="50" height="50" relative="1" as="geometry">
            <mxPoint x="210" y="165" as="sourcePoint" />
            <mxPoint x="400" y="165" as="targetPoint" />
          </mxGeometry>
        </mxCell>
        <mxCell id="flow_receive_to_decision" value="" style="endArrow=classic;html=1;rounded=0;" parent="1" source="manager_receive_order" target="manager_decision" edge="1">
          <mxGeometry width="50" height="50" relative="1" as="geometry">
            <mxPoint x="440" y="210" as="sourcePoint" />
            <mxPoint x="440" y="250" as="targetPoint" />
          </mxGeometry>
        </mxCell>
        <mxCell id="flow_decision_to_confirm" value="Duyệt" style="endArrow=classic;html=1;rounded=0;" parent="1" source="manager_decision" target="manager_confirm_order" edge="1">
          <mxGeometry width="50" height="50" relative="1" as="geometry">
            <mxPoint x="440" y="330" as="sourcePoint" />
            <mxPoint x="440" y="370" as="targetPoint" />
          </mxGeometry>
        </mxCell>
        <mxCell id="flow_decision_to_cancel" value="Hủy" style="endArrow=classic;html=1;rounded=0;" parent="1" source="manager_decision" target="manager_cancel_order" edge="1">
          <mxGeometry width="50" height="50" relative="1" as="geometry">
            <mxPoint x="500" y="280" as="sourcePoint" />
            <mxPoint x="520" y="320" as="targetPoint" />
          </mxGeometry>
        </mxCell>
        <mxCell id="flow_cancel_to_customer" value="Thông báo" style="endArrow=classic;html=1;rounded=0;dashed=1;" parent="1" source="manager_cancel_order" target="customer_track_order" edge="1">
          <mxGeometry width="50" height="50" relative="1" as="geometry">
            <mxPoint x="520" y="320" as="sourcePoint" />
            <mxPoint x="210" y="515" as="targetPoint" />
            <Array as="points">
              <mxPoint x="235" y="440" />
            </Array>
          </mxGeometry>
        </mxCell>
        <mxCell id="flow_track_to_end_cancelled" value="" style="endArrow=classic;html=1;rounded=0;" parent="1" source="customer_track_order" target="customer_end_cancelled" edge="1">
          <mxGeometry width="50" height="50" relative="1" as="geometry">
            <mxPoint x="130" y="570" as="sourcePoint" />
            <mxPoint x="50" y="625" as="targetPoint" />
            <Array as="points">
              <mxPoint x="50" y="580" />
            </Array>
          </mxGeometry>
        </mxCell>
        <mxCell id="flow_confirm_to_baker" value="Hệ thống tự động chuyển" style="endArrow=classic;html=1;rounded=0;" parent="1" source="manager_confirm_order" target="baker_receive_order" edge="1">
          <mxGeometry width="50" height="50" relative="1" as="geometry">
            <mxPoint x="510" y="390" as="sourcePoint" />
            <mxPoint x="680" y="390" as="targetPoint" />
          </mxGeometry>
        </mxCell>
        <mxCell id="flow_baker_receive_to_update" value="" style="endArrow=classic;html=1;rounded=0;" parent="1" source="baker_receive_order" target="baker_update_preparing" edge="1">
          <mxGeometry width="50" height="50" relative="1" as="geometry">
            <mxPoint x="740" y="430" as="sourcePoint" />
            <mxPoint x="740" y="470" as="targetPoint" />
          </mxGeometry>
        </mxCell>
        <mxCell id="flow_baker_update_to_process" value="" style="endArrow=classic;html=1;rounded=0;" parent="1" source="baker_update_preparing" target="baker_process" edge="1">
          <mxGeometry width="50" height="50" relative="1" as="geometry">
            <mxPoint x="740" y="530" as="sourcePoint" />
            <mxPoint x="740" y="570" as="targetPoint" />
          </mxGeometry>
        </mxCell>
        <mxCell id="flow_baker_process_to_finish" value="" style="endArrow=classic;html=1;rounded=0;" parent="1" source="baker_process" target="baker_update_prepared" edge="1">
          <mxGeometry width="50" height="50" relative="1" as="geometry">
            <mxPoint x="740" y="630" as="sourcePoint" />
            <mxPoint x="740" y="670" as="targetPoint" />
          </mxGeometry>
        </mxCell>
        <mxCell id="flow_baker_finish_to_delivery" value="Hệ thống tự động chuyển" style="endArrow=classic;html=1;rounded=0;" parent="1" source="baker_update_prepared" target="delivery_receive_order" edge="1">
          <mxGeometry width="50" height="50" relative="1" as="geometry">
            <mxPoint x="790" y="690" as="sourcePoint" />
            <mxPoint x="940" y="690" as="targetPoint" />
          </mxGeometry>
        </mxCell>
        <mxCell id="flow_delivery_receive_to_update" value="" style="endArrow=classic;html=1;rounded=0;" parent="1" source="delivery_receive_order" target="delivery_update_delivering" edge="1">
          <mxGeometry width="50" height="50" relative="1" as="geometry">
            <mxPoint x="1000" y="730" as="sourcePoint" />
            <mxPoint x="1000" y="770" as="targetPoint" />
          </mxGeometry>
        </mxCell>
        <mxCell id="flow_delivery_update_to_decision" value="" style="endArrow=classic;html=1;rounded=0;" parent="1" source="delivery_update_delivering" target="delivery_decision" edge="1">
          <mxGeometry width="50" height="50" relative="1" as="geometry">
            <mxPoint x="1000" y="840" as="sourcePoint" />
            <mxPoint x="1000" y="870" as="targetPoint" />
          </mxGeometry>
        </mxCell>
        <mxCell id="flow_delivery_decision_to_success" value="Thành công" style="endArrow=classic;html=1;rounded=0;" parent="1" source="delivery_decision" target="delivery_update_delivered" edge="1">
          <mxGeometry width="50" height="50" relative="1" as="geometry">
            <mxPoint x="1100" y="900" as="sourcePoint" />
            <mxPoint x="1100" y="985" as="targetPoint" />
            <Array as="points">
              <mxPoint x="210" y="900" />
            </Array>
          </mxGeometry>
        </mxCell>
        <mxCell id="flow_delivery_decision_to_fail" value="Thất bại" style="endArrow=classic;html=1;rounded=0;" parent="1" source="delivery_decision" target="delivery_update_failed" edge="1">
          <mxGeometry width="50" height="50" relative="1" as="geometry">
            <mxPoint x="930" y="900" as="sourcePoint" />
            <mxPoint x="930" y="985" as="targetPoint" />
            <Array as="points">
              <mxPoint x="70" y="900" />
            </Array>
          </mxGeometry>
        </mxCell>
        <mxCell id="flow_delivery_success_to_customer" value="Giao hàng" style="endArrow=classic;html=1;rounded=0;dashed=1;" parent="1" source="delivery_update_delivered" target="customer_receive_goods" edge="1">
          <mxGeometry width="50" height="50" relative="1" as="geometry">
            <mxPoint x="1010" y="985" as="sourcePoint" />
            <mxPoint x="210" y="800" as="targetPoint" />
            <Array as="points">
              <mxPoint x="1010" y="800" />
            </Array>
          </mxGeometry>
        </mxCell>
        <mxCell id="flow_delivery_fail_to_manager" value="Thông báo" style="endArrow=classic;html=1;rounded=0;dashed=1;" parent="1" source="delivery_update_failed" target="manager_monitor" edge="1">
          <mxGeometry width="50" height="50" relative="1" as="geometry">
            <mxPoint x="930" y="985" as="sourcePoint" />
            <mxPoint x="520" y="895" as="targetPoint" />
            <Array as="points">
              <mxPoint x="930" y="895" />
            </Array>
          </mxGeometry>
        </mxCell>
        <mxCell id="flow_customer_receive_to_review" value="" style="endArrow=classic;html=1;rounded=0;" parent="1" source="customer_receive_goods" target="customer_review" edge="1">
          <mxGeometry width="50" height="50" relative="1" as="geometry">
            <mxPoint x="140" y="840" as="sourcePoint" />
            <mxPoint x="140" y="880" as="targetPoint" />
          </mxGeometry>
        </mxCell>
        <mxCell id="flow_review_to_end" value="" style="endArrow=classic;html=1;rounded=0;" parent="1" source="customer_review" target="customer_end" edge="1">
          <mxGeometry width="50" height="50" relative="1" as="geometry">
            <mxPoint x="140" y="940" as="sourcePoint" />
            <mxPoint x="140" y="970" as="targetPoint" />
          </mxGeometry>
        </mxCell>
        <mxCell id="info_notification_baker" value="Thông báo tự động" style="endArrow=none;html=1;rounded=0;dashed=1;entryX=0.5;entryY=1;entryDx=0;entryDy=0;" parent="1" source="manager_confirm_order" target="customer_track_order" edge="1">
          <mxGeometry width="50" height="50" relative="1" as="geometry">
            <mxPoint x="440" y="430" as="sourcePoint" />
            <mxPoint x="200" y="470" as="targetPoint" />
            <Array as="points">
              <mxPoint x="440" y="515" />
            </Array>
          </mxGeometry>
        </mxCell>
        <mxCell id="info_notification_delivery" value="Thông báo tự động" style="endArrow=none;html=1;rounded=0;dashed=1;" parent="1" source="baker_update_prepared" target="customer_track_order" edge="1">
          <mxGeometry width="50" height="50" relative="1" as="geometry">
            <mxPoint x="740" y="730" as="sourcePoint" />
            <mxPoint x="200" y="560" as="targetPoint" />
            <Array as="points">
              <mxPoint x="740" y="515" />
            </Array>
          </mxGeometry>
        </mxCell>
        <mxCell id="info_notification_delivered" value="Thông báo tự động" style="endArrow=none;html=1;rounded=0;dashed=1;" parent="1" source="delivery_update_delivering" target="customer_track_order" edge="1">
          <mxGeometry width="50" height="50" relative="1" as="geometry">
            <mxPoint x="1000" y="840" as="sourcePoint" />
            <mxPoint x="200" y="560" as="targetPoint" />
            <Array as="points">
              <mxPoint x="1000" y="515" />
            </Array>
          </mxGeometry>
        </mxCell>
      </root>
    </mxGraphModel>
  </diagram>
</mxfile>
